<svg width="261" height="218" viewBox="0 0 261 218" fill="none" xmlns="http://www.w3.org/2000/svg">
<path d="M246.909 152.26C238.513 140.57 200.646 130.027 154.767 127.405C108.887 124.783 70.0327 130.956 60.3739 141.553L58.3434 141.444L58.069 146.306C58.069 146.36 58.069 146.415 58.069 146.469C57.3006 160.071 99.3384 173.509 151.968 176.513C204.597 179.518 247.897 170.996 248.72 157.395H248.885L249.105 152.369L246.909 152.26Z" fill="#CEDCE0"/>
<path fill-rule="evenodd" clip-rule="evenodd" d="M155.064 122.524C207.713 125.572 249.756 139.055 248.969 152.638C248.183 166.222 204.865 174.762 152.216 171.714C99.5671 168.665 57.5243 155.182 58.3108 141.599C59.0973 128.016 102.415 119.475 155.064 122.524Z" fill="white"/>
<path fill-rule="evenodd" clip-rule="evenodd" d="M154.157 137.733C177.365 139.076 195.897 145.024 195.55 151.018C195.203 157.012 176.108 160.781 152.9 159.437C129.693 158.094 111.16 152.145 111.507 146.152C111.854 140.158 130.949 136.389 154.157 137.733Z" fill="#CFD3D6"/>
<path fill-rule="evenodd" clip-rule="evenodd" d="M127.93 135.216H125.625V138.767C125.625 140.351 125.186 141.553 124.308 142.372C123.43 143.192 122.277 143.629 120.85 143.629C119.424 143.629 118.271 143.192 117.393 142.372C116.515 141.553 116.076 140.351 116.076 138.767V135.216H100.819C99.5024 135.216 98.5145 134.834 97.7462 134.069C96.9779 133.304 96.5938 132.321 96.5938 131.174C96.5938 130.027 96.9779 128.825 97.8011 127.678L116.515 101.076C117.009 100.366 117.667 99.8193 118.381 99.4916C119.149 99.1638 119.918 98.9453 120.741 98.9453C122.058 98.9453 123.155 99.3823 124.143 100.202C125.131 101.076 125.57 102.223 125.57 103.752V127.787H127.875C131.003 127.787 132.54 128.989 132.54 131.447C132.54 133.96 131.003 135.216 127.93 135.216ZM116.076 114.022L106.472 127.787H116.076V114.022Z" fill="#4D4D4D"/>
<path fill-rule="evenodd" clip-rule="evenodd" d="M137.205 121.233C137.205 113.968 138.632 108.341 141.431 104.463C144.23 100.585 148.346 98.6729 153.724 98.6729C159.102 98.6729 163.163 100.585 166.017 104.463C168.816 108.341 170.243 113.913 170.243 121.233C170.243 128.553 168.816 134.179 166.017 138.058C163.218 141.936 159.102 143.848 153.724 143.848C148.346 143.848 144.23 141.936 141.431 138.058C138.632 134.179 137.205 128.553 137.205 121.233ZM160.639 121.178C160.639 115.825 160.09 112.001 158.992 109.598C157.895 107.249 156.139 106.047 153.669 106.047C151.254 106.047 149.498 107.249 148.346 109.652C147.248 112.056 146.699 115.88 146.699 121.178C146.699 126.477 147.248 130.301 148.346 132.759C149.443 135.162 151.199 136.364 153.669 136.364C156.084 136.419 157.895 135.217 158.992 132.759C160.09 130.355 160.639 126.477 160.639 121.178Z" fill="#4D4D4D"/>
<path fill-rule="evenodd" clip-rule="evenodd" d="M207.012 135.216H204.707V138.767C204.707 140.351 204.268 141.553 203.39 142.372C202.512 143.192 201.359 143.629 199.933 143.629C198.506 143.629 197.353 143.192 196.475 142.372C195.597 141.553 195.158 140.351 195.158 138.767V135.216H179.901C178.584 135.216 177.597 134.834 176.828 134.069C176.06 133.304 175.676 132.321 175.676 131.174C175.676 130.027 176.06 128.825 176.883 127.678L195.597 101.076C196.091 100.366 196.749 99.8193 197.463 99.4916C198.231 99.1638 199 98.9453 199.823 98.9453C201.14 98.9453 202.237 99.3823 203.225 100.202C204.213 101.076 204.652 102.223 204.652 103.752V127.787H206.957C210.085 127.787 211.622 128.989 211.622 131.447C211.622 133.96 210.085 135.216 207.012 135.216ZM195.213 114.022L185.554 127.787H195.213V114.022Z" fill="#4D4D4D"/>
<path fill-rule="evenodd" clip-rule="evenodd" d="M128.424 135.216H126.119V138.767C126.119 140.351 125.68 141.553 124.802 142.372C123.924 143.192 122.771 143.629 121.345 143.629C119.918 143.629 118.765 143.192 117.887 142.372C117.009 141.553 116.57 140.351 116.57 138.767V135.216H101.314C99.9965 135.216 99.0087 134.834 98.2404 134.069C97.4721 133.304 97.0879 132.321 97.0879 131.174C97.0879 130.027 97.4721 128.825 98.2952 127.678L117.009 101.076C117.503 100.366 118.162 99.8193 118.875 99.4916C119.643 99.1638 120.412 98.9453 121.235 98.9453C122.552 98.9453 123.65 99.3823 124.637 100.202C125.625 101.076 126.064 102.223 126.064 103.752V127.787H128.369C131.497 127.787 133.034 128.989 133.034 131.447C133.034 133.96 131.497 135.216 128.424 135.216ZM116.57 114.022L106.966 127.787H116.57V114.022Z" fill="#4F6B78"/>
<path fill-rule="evenodd" clip-rule="evenodd" d="M137.645 121.233C137.645 113.968 139.071 108.341 141.87 104.463C144.669 100.585 148.785 98.6729 154.163 98.6729C159.541 98.6729 163.603 100.585 166.456 104.463C169.255 108.341 170.682 113.913 170.682 121.233C170.682 128.553 169.255 134.179 166.456 138.058C163.657 141.936 159.541 143.848 154.163 143.848C148.785 143.848 144.724 141.936 141.87 138.058C139.071 134.179 137.645 128.553 137.645 121.233ZM161.133 121.178C161.133 115.825 160.584 112.001 159.487 109.598C158.389 107.249 156.633 106.047 154.163 106.047C151.749 106.047 149.992 107.249 148.84 109.652C147.742 112.056 147.194 115.88 147.194 121.178C147.194 126.477 147.742 130.301 148.84 132.759C149.938 135.162 151.694 136.364 154.163 136.364C156.578 136.419 158.389 135.217 159.487 132.759C160.584 130.355 161.133 126.477 161.133 121.178Z" fill="#4F6B78"/>
<path fill-rule="evenodd" clip-rule="evenodd" d="M207.506 135.216H205.201V138.767C205.201 140.351 204.762 141.553 203.884 142.372C203.006 143.192 201.854 143.629 200.427 143.629C199 143.629 197.847 143.192 196.969 142.372C196.091 141.553 195.652 140.351 195.652 138.767V135.216H180.396C179.079 135.216 178.091 134.834 177.322 134.069C176.554 133.304 176.17 132.321 176.17 131.174C176.17 130.027 176.554 128.825 177.377 127.678L196.091 101.076C196.585 100.366 197.244 99.8193 197.957 99.4916C198.725 99.1638 199.494 98.9453 200.317 98.9453C201.634 98.9453 202.732 99.3823 203.719 100.202C204.707 101.076 205.146 102.223 205.146 103.752V127.787H207.451C210.579 127.787 212.116 128.989 212.116 131.447C212.116 133.96 210.579 135.216 207.506 135.216ZM195.652 114.022L186.048 127.787H195.652V114.022Z" fill="#4F6B78"/>
<path fill-rule="evenodd" clip-rule="evenodd" d="M125.459 135.216H123.154V138.767C123.154 140.351 122.715 141.553 121.837 142.372C120.959 143.192 119.807 143.629 118.38 143.629C116.953 143.629 115.8 143.192 114.922 142.372C114.044 141.553 113.605 140.351 113.605 138.767V135.216H98.3488C97.0317 135.216 96.0438 134.834 95.2755 134.069C94.5072 133.304 94.123 132.321 94.123 131.174C94.123 130.027 94.5072 128.825 95.3304 127.678L114.044 101.076C114.538 100.366 115.197 99.8193 115.91 99.4916C116.679 99.1638 117.447 98.9453 118.27 98.9453C119.587 98.9453 120.685 99.3823 121.673 100.202C122.66 101.076 123.099 102.223 123.099 103.752V127.787H125.404C128.533 127.787 130.069 128.989 130.069 131.447C130.069 133.96 128.533 135.216 125.459 135.216ZM113.66 114.022L104.001 127.787H113.66V114.022Z" fill="#05375A"/>
<path fill-rule="evenodd" clip-rule="evenodd" d="M134.734 121.233C134.734 113.968 136.161 108.341 138.96 104.463C141.759 100.585 145.875 98.6729 151.253 98.6729C156.631 98.6729 160.692 100.585 163.546 104.463C166.345 108.341 167.772 113.913 167.772 121.233C167.772 128.553 166.345 134.179 163.546 138.058C160.747 141.936 156.631 143.848 151.253 143.848C145.875 143.848 141.814 141.936 138.96 138.058C136.161 134.179 134.734 128.553 134.734 121.233ZM158.223 121.178C158.223 115.825 157.674 112.001 156.576 109.598C155.479 107.249 153.723 106.047 151.253 106.047C148.838 106.047 147.082 107.249 145.93 109.652C144.832 112.056 144.283 115.88 144.283 121.178C144.283 126.477 144.832 130.301 145.93 132.759C147.027 135.162 148.784 136.364 151.253 136.364C153.668 136.419 155.424 135.217 156.576 132.759C157.674 130.355 158.223 126.477 158.223 121.178Z" fill="#05375A"/>
<path fill-rule="evenodd" clip-rule="evenodd" d="M204.596 135.216H202.291V138.767C202.291 140.351 201.852 141.553 200.974 142.372C200.096 143.192 198.943 143.629 197.517 143.629C196.09 143.629 194.937 143.192 194.059 142.372C193.181 141.553 192.742 140.351 192.742 138.767V135.216H177.485C176.168 135.216 175.181 134.834 174.412 134.069C173.644 133.304 173.26 132.321 173.26 131.174C173.26 130.027 173.644 128.825 174.467 127.678L193.181 101.021C193.675 100.311 194.333 99.7646 195.047 99.4369C195.815 99.1091 196.584 98.8906 197.407 98.8906C198.724 98.8906 199.821 99.3276 200.809 100.147C201.797 101.021 202.236 102.168 202.236 103.698V127.787H204.541C207.669 127.787 209.206 128.989 209.206 131.447C209.206 133.96 207.669 135.216 204.596 135.216ZM192.742 114.022L183.138 127.787H192.742V114.022Z" fill="#05375A"/>
<path d="M113.826 8.05035C72.5562 21.9797 49.0129 64.2595 57.629 105.665L57.7388 105.611C57.7388 105.665 57.7388 105.665 57.7936 105.72C61.6901 117.191 100.764 114.351 144.997 99.4381C189.23 84.5255 221.993 63.1124 218.097 51.6412C218.097 51.5865 218.042 51.5865 218.042 51.5319H218.097C199.657 13.4036 155.095 -5.87904 113.826 8.05035Z" fill="url(#paint0_linear_5_2)"/>
<path d="M110.752 0.456834C107.624 1.65859 105.868 5.20921 106.855 8.43209C107.24 9.7431 108.008 10.8356 108.996 11.655C110.093 12.5836 110.971 13.7854 111.41 15.151V15.2056C112.014 16.9536 113.88 17.8822 115.636 17.2814L117.612 16.6259C119.423 16.025 120.356 14.1131 119.752 12.3105C119.258 10.9448 119.258 9.41535 119.587 7.99509C119.862 6.84797 119.807 5.59159 119.423 4.44446C118.215 0.893834 114.319 -0.908793 110.752 0.456834Z" fill="#3B5059"/>
<path d="M222.267 69.4478C222.486 69.0654 222.98 68.9016 223.31 69.1747L230.608 74.3094C230.993 74.5826 230.993 75.1288 230.663 75.4566L214.364 88.5666C213.76 89.0582 212.937 88.4027 213.267 87.6926L222.267 69.4478Z" fill="#05375A"/>
<path d="M239.5 76.2768C239.884 76.0037 240.378 76.113 240.597 76.55L244.713 84.4706C244.933 84.9076 244.713 85.3992 244.219 85.5085L223.694 89.7692C222.871 89.8239 222.432 88.8406 223.091 88.4036L239.5 76.2768Z" fill="#05375A"/>
<path d="M236.811 92.9382C237.25 92.8289 237.689 93.1567 237.689 93.5937L237.963 98.8377C237.963 99.3293 237.579 99.6571 237.085 99.6024L225.012 96.9804C224.243 96.8166 224.243 95.7787 225.012 95.5602L236.811 92.9382Z" fill="#05375A"/>
<path d="M217.932 56.2846C181.163 87.5848 122.551 102.443 91.1603 99.056C69.0438 96.6525 63.7205 75.021 64.379 51.5322C56.4215 67.9197 53.6775 86.9293 57.6289 105.666L57.7388 105.611C57.7388 105.666 57.7387 105.666 57.7936 105.72C61.69 117.246 100.764 114.406 144.997 99.493C183.852 86.383 213.816 68.3021 217.932 56.2846Z" fill="#DFE3E6"/>
<path d="M9.77393 112.166C21.2986 116.59 30.5184 123.145 36.5003 131.175L61.0314 164.169C61.5802 164.934 61.0863 165.917 59.9338 166.354L46.159 171.762C45.0066 172.199 43.5797 171.98 43.0309 171.215L0.224895 112.002C-0.762936 110.636 1.70664 109.052 3.6823 109.817L9.77393 112.166Z" fill="url(#paint1_linear_5_2)"/>
<path d="M75.3545 189.297L59.2748 167.72L48.683 171.926L46.0488 170.232V172.964L63.6651 196.616C65.4213 198.965 69.8117 199.73 73.4337 198.255C76.0679 197.217 77.6045 195.305 77.6045 193.448V190.771L75.3545 189.297Z" fill="#041724"/>
<path d="M76.8911 188.586L59.2748 164.988L46.0488 170.178L63.6652 193.83C65.4213 196.179 69.8117 196.944 73.4337 195.469C77.1106 194.049 78.6473 190.935 76.8911 188.586Z" fill="#4F6B78"/>
<path d="M255.084 127.57C254.645 128.39 253.658 128.772 252.78 128.39C251.792 128.007 251.353 126.805 251.847 125.877L254.591 120.797C254.975 120.141 254.645 119.267 253.932 118.994C253.328 118.721 252.615 118.994 252.286 119.595L249.267 125.221C248.828 126.041 247.84 126.423 246.962 126.041C245.974 125.658 245.535 124.457 246.029 123.528L248.773 118.448C249.157 117.792 248.828 116.918 248.115 116.645C247.511 116.372 246.798 116.645 246.468 117.246L242.682 124.347L242.298 125.057L241.749 126.095C240.871 127.734 241.639 129.646 243.45 130.738L218.754 175.367C217.766 177.17 218.864 179.409 221.169 180.338C223.474 181.267 226.108 180.556 227.096 178.754L250.584 133.634C252.67 134.18 254.92 133.415 255.798 131.831L256.347 130.793L256.731 130.083L260.408 123.255C260.792 122.599 260.463 121.725 259.749 121.452C259.146 121.124 258.432 121.343 258.103 121.944L255.084 127.57Z" fill="url(#paint2_linear_5_2)"/>
<path d="M40.3974 136.418L36.5009 131.174C35.2936 129.59 33.9765 128.006 32.5496 126.531L9.44531 124.729L17.8419 136.418H40.3974Z" fill="#E5E5E5"/>
<path d="M23.1094 143.684L26.6765 148.6H49.4515L45.7746 143.684H23.1094Z" fill="#E5E5E5"/>
<path d="M148.5 218C195.72 218 234 214.866 234 211C234 207.134 195.72 204 148.5 204C101.28 204 63 207.134 63 211C63 214.866 101.28 218 148.5 218Z" fill="#D9D9D9"/>
<defs>
<linearGradient id="paint0_linear_5_2" x1="-4.69693e-05" y1="1.39928e-05" x2="-4.69693e-05" y2="217.999" gradientUnits="userSpaceOnUse">
<stop stop-color="white"/>
<stop offset="1" stop-color="#EAE7E7"/>
</linearGradient>
<linearGradient id="paint1_linear_5_2" x1="0" y1="-0.00087214" x2="0" y2="217.998" gradientUnits="userSpaceOnUse">
<stop stop-color="#A2AFB5"/>
<stop offset="1" stop-color="#BEC8CC"/>
</linearGradient>
<linearGradient id="paint2_linear_5_2" x1="0.00375906" y1="0.000221065" x2="0.00375906" y2="218" gradientUnits="userSpaceOnUse">
<stop stop-color="#A2AFB5"/>
<stop offset="1" stop-color="#BEC8CC"/>
</linearGradient>
</defs>
</svg>
