<svg width="35" height="35" viewBox="0 0 35 35" fill="none" xmlns="http://www.w3.org/2000/svg">
<g id="icon/file-signature">
<path id="Vector" d="M28.9933 28.2742V28.9925C28.9933 29.7545 28.6906 30.4853 28.1518 31.0241C27.613 31.563 26.8821 31.8657 26.1201 31.8657H8.881C8.11898 31.8657 7.38818 31.563 6.84935 31.0241C6.31052 30.4853 6.00781 29.7545 6.00781 28.9925V6.00698C6.00781 5.24496 6.31052 4.51415 6.84935 3.97533C7.38818 3.4365 8.11898 3.13379 8.881 3.13379H21.0921L26.1201 8.16187" stroke="#64748B" stroke-width="2.65217" stroke-linecap="round" stroke-linejoin="round"/>
<path id="Vector_2" d="M11.7539 26.1191H13.1905" stroke="#64748B" stroke-width="2.65217" stroke-linecap="round" stroke-linejoin="round"/>
<path id="Vector_3" d="M26.7238 14.0663C27.004 13.7861 27.3366 13.5639 27.7026 13.4123C28.0687 13.2607 28.461 13.1826 28.8572 13.1826C29.2534 13.1826 29.6457 13.2607 30.0117 13.4123C30.3778 13.5639 30.7104 13.7861 30.9905 14.0663C31.2707 14.3464 31.4929 14.679 31.6445 15.0451C31.7961 15.4111 31.8742 15.8034 31.8742 16.1996C31.8742 16.5958 31.7961 16.9881 31.6445 17.3542C31.4929 17.7202 31.2707 18.0528 30.9905 18.333L24.612 24.6827L18.9375 26.1193L20.3597 20.4448L26.7238 14.0663Z" stroke="#64748B" stroke-width="2.65217" stroke-linecap="round" stroke-linejoin="round"/>
</g>
</svg>
