<svg width="19" height="16" viewBox="0 0 19 16" fill="none" xmlns="http://www.w3.org/2000/svg">
<g id="Group 1">
<path id="Vector" d="M17.0189 0.88129L16.283 0.145348C16.075 -0.0626432 15.691 -0.0306342 15.451 0.257311L12.8908 2.80128C11.7388 2.30533 10.4749 2.06533 9.14682 2.06533C5.1947 2.08127 1.77092 4.38524 0.122802 7.69745C0.0267743 7.90544 0.0267743 8.16137 0.122802 8.33736C0.890735 9.90538 2.04281 11.2014 3.48281 12.1774L1.38682 14.3053C1.14682 14.5453 1.11481 14.9293 1.27485 15.1373L2.0108 15.8733C2.21879 16.0812 2.60277 16.0492 2.84277 15.7613L16.8907 1.7134C17.1947 1.47354 17.2267 1.08958 17.0187 0.881565L17.0189 0.88129ZM9.99481 5.71318C9.7228 5.64916 9.43485 5.5692 9.16283 5.5692C7.80278 5.5692 6.71489 6.65723 6.71489 8.01714C6.71489 8.28914 6.77891 8.57709 6.85887 8.84911L5.78675 9.90515C5.4668 9.34519 5.29081 8.72109 5.29081 8.01717C5.29081 5.88919 7.00283 4.17717 9.13081 4.17717C9.83487 4.17717 10.4588 4.35315 11.0188 4.67311L9.99481 5.71318Z" fill="#666666" fill-opacity="0.8"/>
<path id="Vector_2" d="M18.1709 7.6974C17.6109 6.57735 16.8749 5.56942 15.963 4.75339L12.9869 7.6974V8.01735C12.9869 10.1453 11.2749 11.8574 9.1469 11.8574H8.82695L6.93896 13.7453C7.64302 13.8893 8.37897 13.9853 9.09897 13.9853C13.0511 13.9853 16.4749 11.6814 18.123 8.35322C18.267 8.12915 18.267 7.90524 18.1709 7.69723L18.1709 7.6974Z" fill="#666666" fill-opacity="0.8"/>
</g>
</svg>
