<svg width="20" height="20" viewBox="0 0 20 20" fill="none" xmlns="http://www.w3.org/2000/svg">
<g id="icon/file-signature">
<path id="Vector" d="M16.6673 16.2501V16.6667C16.6673 17.1088 16.4917 17.5327 16.1792 17.8453C15.8666 18.1578 15.4427 18.3334 15.0007 18.3334H5.00065C4.55862 18.3334 4.1347 18.1578 3.82214 17.8453C3.50958 17.5327 3.33398 17.1088 3.33398 16.6667V3.33341C3.33398 2.89139 3.50958 2.46746 3.82214 2.1549C4.1347 1.84234 4.55862 1.66675 5.00065 1.66675H12.084L15.0007 4.58341" stroke="#64748B" stroke-width="2" stroke-linecap="round" stroke-linejoin="round"/>
<path id="Vector_2" d="M6.66602 15H7.49935" stroke="#64748B" stroke-width="2" stroke-linecap="round" stroke-linejoin="round"/>
<path id="Vector_3" d="M15.3507 8.00844C15.5132 7.84593 15.7061 7.71702 15.9184 7.62907C16.1308 7.54112 16.3583 7.49585 16.5882 7.49585C16.818 7.49585 17.0455 7.54112 17.2579 7.62907C17.4702 7.71702 17.6631 7.84593 17.8257 8.00844C17.9882 8.17095 18.1171 8.36388 18.205 8.57621C18.293 8.78854 18.3382 9.01611 18.3382 9.24594C18.3382 9.47576 18.293 9.70334 18.205 9.91567C18.1171 10.128 17.9882 10.3209 17.8257 10.4834L14.1257 14.1668L10.834 15.0001L11.659 11.7084L15.3507 8.00844Z" stroke="#64748B" stroke-width="2" stroke-linecap="round" stroke-linejoin="round"/>
</g>
</svg>
