<svg width="286" height="302" viewBox="0 0 286 302" fill="none" xmlns="http://www.w3.org/2000/svg">
<path d="M163.514 294.529C163.266 294.529 163.017 294.463 162.793 294.334L41.9324 223.237C41.5896 223.036 41.3484 222.701 41.2646 222.312C41.1808 221.924 41.2621 221.52 41.4906 221.195L138.835 82.8622C139.287 82.2198 140.173 82.0649 140.815 82.5168C141.457 82.9688 141.612 83.8549 141.16 84.4973L44.7069 221.569L162.22 290.697L166.037 220.074C166.08 219.29 166.74 218.696 167.532 218.731C168.317 218.774 168.916 219.445 168.875 220.227L164.932 293.183C164.904 293.678 164.622 294.125 164.183 294.358C163.975 294.473 163.744 294.528 163.513 294.528L163.514 294.529ZM168.61 200.279C168.585 200.279 168.56 200.279 168.532 200.277C167.747 200.233 167.148 199.563 167.188 198.781L176.045 34.9356L153.434 67.0651C152.983 67.7074 152.096 67.8624 151.454 67.4104C150.812 66.9584 150.657 66.0723 151.109 65.4299L176.57 29.2509C176.936 28.7329 177.599 28.5171 178.198 28.7253C178.797 28.9335 179.186 29.5124 179.153 30.1446L170.027 198.937C169.987 199.693 169.36 200.28 168.611 200.28L168.61 200.279Z" fill="white"/>
<path d="M277.265 223.432H197.555C196.771 223.432 196.134 222.795 196.134 222.01C196.134 221.226 196.771 220.588 197.555 220.588H275.022L219.661 102.945L61.2557 163.03C60.5194 163.309 59.6993 162.938 59.4225 162.204C59.1432 161.471 59.5139 160.648 60.2477 160.371L219.888 99.8199C220.581 99.5584 221.36 99.8707 221.678 100.544L278.553 221.404C278.761 221.844 278.728 222.362 278.466 222.773C278.207 223.184 277.755 223.433 277.268 223.433L277.265 223.432ZM176.229 223.432H42.654C42.1792 223.432 41.7348 223.194 41.4708 222.8L13.0333 180.144C12.7921 179.783 12.7312 179.334 12.8632 178.92C12.9952 178.509 13.3075 178.178 13.7138 178.024L40.3079 167.936C41.0442 167.656 41.8643 168.027 42.1411 168.761C42.4204 169.495 42.0497 170.317 41.3159 170.594L16.3897 180.047L43.4154 220.588H176.23C177.014 220.588 177.652 221.225 177.652 222.01C177.649 222.794 177.012 223.432 176.227 223.432H176.229Z" fill="white"/>
<path d="M14.2162 180.779C13.8811 180.779 13.5485 180.66 13.2844 180.431C12.8883 180.091 12.7131 179.558 12.8273 179.047L41.2648 51.0755C41.3486 50.6946 41.5873 50.3645 41.9225 50.164C42.2576 49.9634 42.6613 49.91 43.0345 50.0141L107.502 68.0647C108.258 68.2754 108.7 69.0599 108.487 69.8166C108.276 70.5733 107.489 71.0151 106.735 70.8017L43.7127 53.1555L16.1715 177.085L90.5575 148.871C91.2913 148.591 92.114 148.962 92.3907 149.696C92.67 150.43 92.2993 151.252 91.5656 151.529L14.7225 180.683C14.5575 180.744 14.3874 180.774 14.2173 180.774L14.2162 180.779ZM111.008 144.067C110.434 144.067 109.893 143.717 109.677 143.15C109.398 142.417 109.769 141.594 110.502 141.317L215.841 101.36L127.279 76.561C126.522 76.3503 126.08 75.5657 126.294 74.8091C126.505 74.0524 127.289 73.6106 128.046 73.8239L220.775 99.7882C221.366 99.9532 221.785 100.479 221.813 101.093C221.841 101.708 221.47 102.269 220.897 102.487L111.515 143.978C111.344 144.036 111.173 144.067 111.008 144.067Z" fill="white"/>
<path d="M270.154 301.64C261.528 301.64 254.514 294.625 254.514 286C254.514 277.375 261.529 270.359 270.154 270.359C278.779 270.359 285.794 277.375 285.794 286C285.794 294.625 278.779 301.64 270.154 301.64ZM270.154 273.202C263.098 273.202 257.357 278.943 257.357 286C257.357 293.056 263.098 298.797 270.154 298.797C277.21 298.797 282.951 293.056 282.951 286C282.951 278.943 277.21 273.202 270.154 273.202Z" fill="white"/>
<path d="M99.529 31.4807C90.9035 31.4807 83.8887 24.4652 83.8887 15.8404C83.8887 7.21553 90.9041 0.200073 99.529 0.200073C108.154 0.200073 115.169 7.21553 115.169 15.8404C115.169 24.4652 108.154 31.4807 99.529 31.4807ZM99.529 3.04317C92.4732 3.04317 86.7318 8.78398 86.7318 15.8404C86.7318 22.8968 92.4726 28.6376 99.529 28.6376C106.585 28.6376 112.326 22.8968 112.326 15.8404C112.326 8.78398 106.585 3.04317 99.529 3.04317Z" fill="white"/>
<path d="M234.605 202.106C234.23 202.106 233.867 201.948 233.595 201.687C233.331 201.423 233.184 201.055 233.184 200.684C233.184 200.305 233.333 199.937 233.595 199.673C234.128 199.148 235.08 199.148 235.606 199.673C235.875 199.942 236.025 200.305 236.025 200.684C236.025 201.054 235.875 201.423 235.606 201.687C235.344 201.948 234.981 202.106 234.605 202.106Z" fill="white"/>
<path d="M213.277 202.106C212.902 202.106 212.539 201.948 212.274 201.687C212.005 201.423 211.855 201.055 211.855 200.684C211.855 200.305 212.005 199.937 212.274 199.673C212.792 199.148 213.752 199.148 214.28 199.673C214.549 199.942 214.699 200.305 214.699 200.684C214.699 201.054 214.549 201.423 214.288 201.687C214.016 201.948 213.653 202.106 213.277 202.106Z" fill="white"/>
<path d="M191.951 202.106C191.575 202.106 191.212 201.948 190.941 201.687C190.677 201.423 190.529 201.055 190.529 200.684C190.529 200.305 190.679 199.945 190.941 199.673C191.474 199.148 192.426 199.148 192.952 199.673C193.221 199.942 193.371 200.305 193.371 200.684C193.371 201.054 193.221 201.423 192.959 201.687C192.69 201.948 192.327 202.106 191.951 202.106Z" fill="white"/>
<path d="M191.951 180.779C191.58 180.779 191.212 180.622 190.941 180.36C190.677 180.096 190.529 179.728 190.529 179.357C190.529 178.979 190.679 178.618 190.941 178.347C191.474 177.821 192.426 177.821 192.952 178.347C193.221 178.616 193.371 178.979 193.371 179.357C193.371 179.728 193.221 180.096 192.952 180.36C192.69 180.622 192.322 180.779 191.951 180.779Z" fill="white"/>
<path d="M191.951 159.453C191.575 159.453 191.212 159.295 190.948 159.034C190.679 158.769 190.529 158.401 190.529 158.031C190.529 157.652 190.679 157.292 190.941 157.02C191.474 156.494 192.426 156.494 192.952 157.02C193.221 157.289 193.371 157.652 193.371 158.031C193.371 158.401 193.221 158.769 192.959 159.034C192.69 159.295 192.327 159.453 191.951 159.453Z" fill="white"/>
<path d="M0 278.89H14.2188V293.109H0V278.89Z" fill="white"/>
<path d="M21.3262 278.89H35.5449V293.109H21.3262V278.89Z" fill="white"/>
<path d="M42.6523 278.89H56.8711V293.109H42.6523V278.89Z" fill="white"/>
<path d="M63.9805 278.89H78.1992V293.109H63.9805V278.89Z" fill="white"/>
</svg>
