<svg width="24" height="24" viewBox="0 0 24 24" fill="none" xmlns="http://www.w3.org/2000/svg">
<g id="icons2/Rocket">
<path id="Shape" fill-rule="evenodd" clip-rule="evenodd" d="M10.9665 6.16588L12.2465 4.88584C13.2777 3.85461 15.0865 3.13895 16.8839 2.8822C17.7697 2.75566 18.6074 2.74779 19.291 2.85017C19.9988 2.95616 20.4325 3.16333 20.6351 3.36591C20.8377 3.56849 21.0449 4.0022 21.1509 4.70991C21.2532 5.39356 21.2454 6.23122 21.1188 7.11701C20.8621 8.91441 20.1464 10.7232 19.1151 11.7545L12.0008 18.8688L10.1664 17.0345C9.85402 16.7221 9.34749 16.7221 9.03507 17.0345C8.72265 17.3469 8.72265 17.8535 9.03507 18.1659L11.4351 20.5659C11.7475 20.8783 12.254 20.8783 12.5665 20.5659L13.4419 19.6904L15.3148 22.8118C15.4415 23.023 15.6585 23.1641 15.903 23.1942C16.1475 23.2243 16.3923 23.1401 16.5664 22.9659L19.7664 19.7659C19.9445 19.5878 20.0283 19.3363 19.9927 19.0871L19.2493 13.8831L20.2465 12.8859C21.6152 11.5171 22.4195 9.32588 22.7027 7.34329C22.8462 6.33908 22.8633 5.34175 22.7332 4.47293C22.6067 3.62816 22.3239 2.79191 21.7664 2.23451C21.209 1.67713 20.3728 1.39433 19.528 1.26782C18.6592 1.13771 17.6619 1.15483 16.6576 1.29828C14.6751 1.58148 12.4838 2.38579 11.1151 3.75447L10.1179 4.75168L4.91392 4.00825C4.66465 3.97264 4.41316 4.05647 4.2351 4.23453L1.0351 7.43452C0.860907 7.60872 0.776682 7.85345 0.806782 8.09796C0.836881 8.34246 0.97795 8.55946 1.18919 8.6862L4.31061 10.559L3.43512 11.4345C3.28509 11.5845 3.20081 11.788 3.20081 12.0002C3.20081 12.2124 3.28509 12.4159 3.43512 12.5659L5.83513 14.9659C6.14755 15.2783 6.65408 15.2783 6.9665 14.9659C7.27892 14.6535 7.27892 14.1469 6.9665 13.8345L5.13218 12.0002L6.1665 10.9659L10.9665 6.16588ZM16.1596 21.11L14.6081 18.5242L17.8351 15.2973L18.3522 18.9174L16.1596 21.11ZM5.4768 9.39285L8.70374 6.16589L5.08363 5.64874L2.89099 7.84138L5.4768 9.39285ZM3.76647 16.5659C4.07889 16.2535 4.07889 15.7469 3.76647 15.4345C3.45405 15.1221 2.94752 15.1221 2.6351 15.4345L1.0351 17.0345C0.722683 17.3469 0.722683 17.8535 1.0351 18.1659C1.34752 18.4783 1.85405 18.4783 2.16647 18.1659L3.76647 16.5659ZM6.16651 18.9659C6.47893 18.6535 6.47894 18.147 6.16652 17.8345C5.85411 17.5221 5.34757 17.5221 5.03515 17.8345L1.83511 21.0345C1.52269 21.3469 1.52268 21.8534 1.8351 22.1659C2.14751 22.4783 2.65404 22.4783 2.96647 22.1659L6.16651 18.9659ZM8.56647 21.3659C8.87889 21.0534 8.87889 20.5469 8.56647 20.2345C8.25405 19.9221 7.74752 19.9221 7.4351 20.2345L5.8351 21.8345C5.52268 22.1469 5.52268 22.6535 5.8351 22.9659C6.14752 23.2783 6.65405 23.2783 6.96647 22.9659L8.56647 21.3659ZM15.2007 10.7983C16.3043 10.7983 17.1988 9.90371 17.1988 8.80019C17.1988 7.69667 16.3043 6.80209 15.2007 6.80209C14.0972 6.80209 13.2026 7.69667 13.2026 8.80019C13.2026 9.90371 14.0972 10.7983 15.2007 10.7983Z" fill="black"/>
</g>
</svg>
