<svg width="20" height="20" viewBox="0 0 20 20" fill="none" xmlns="http://www.w3.org/2000/svg">
<g id="mdi:eye">
<path id="Vector" d="M10.5 7.9C9.81285 7.9 9.15384 8.17393 8.66795 8.66152C8.18206 9.14912 7.90909 9.81044 7.90909 10.5C7.90909 11.1896 8.18206 11.8509 8.66795 12.3385C9.15384 12.8261 9.81285 13.1 10.5 13.1C11.1872 13.1 11.8462 12.8261 12.3321 12.3385C12.8179 11.8509 13.0909 11.1896 13.0909 10.5C13.0909 9.81044 12.8179 9.14912 12.3321 8.66152C11.8462 8.17393 11.1872 7.9 10.5 7.9ZM10.5 14.8333C9.35475 14.8333 8.2564 14.3768 7.44658 13.5641C6.63677 12.7515 6.18182 11.6493 6.18182 10.5C6.18182 9.35073 6.63677 8.24853 7.44658 7.43587C8.2564 6.62321 9.35475 6.16667 10.5 6.16667C11.6453 6.16667 12.7436 6.62321 13.5534 7.43587C14.3632 8.24853 14.8182 9.35073 14.8182 10.5C14.8182 11.6493 14.3632 12.7515 13.5534 13.5641C12.7436 14.3768 11.6453 14.8333 10.5 14.8333ZM10.5 4C6.18182 4 2.49409 6.69533 1 10.5C2.49409 14.3047 6.18182 17 10.5 17C14.8182 17 18.5059 14.3047 20 10.5C18.5059 6.69533 14.8182 4 10.5 4Z" fill="#858585"/>
</g>
</svg>
