<svg width="240" height="241" viewBox="0 0 240 241" fill="none" xmlns="http://www.w3.org/2000/svg">
<path d="M118.5 241C165.72 241 204 237.866 204 234C204 230.134 165.72 227 118.5 227C71.2797 227 33 230.134 33 234C33 237.866 71.2797 241 118.5 241Z" fill="#D9D9D9" fill-opacity="0.26"/>
<path fill-rule="evenodd" clip-rule="evenodd" d="M229.598 107.354C229.598 166.644 181.534 214.708 122.245 214.708C62.9546 214.708 14.8906 166.644 14.8906 107.354C14.8906 48.064 62.9546 0 122.245 0C181.534 0 229.598 48.064 229.598 107.354Z" fill="url(#paint0_linear_6_29)"/>
<path fill-rule="evenodd" clip-rule="evenodd" d="M193.529 136.764C193.529 153.203 180.203 166.529 163.764 166.529C147.326 166.529 134 153.203 134 136.764C134 120.326 147.326 107 163.764 107C180.203 107 193.529 120.326 193.529 136.764Z" fill="url(#paint1_linear_6_29)"/>
<path d="M148.084 155.497C146.639 154.052 146.639 151.692 148.084 150.247L175.247 123.084C176.692 121.639 179.052 121.639 180.497 123.084C181.942 124.529 181.942 126.888 180.497 128.333L153.382 155.545C152.659 156.268 151.696 156.605 150.733 156.605C149.769 156.605 148.854 156.219 148.084 155.497Z" fill="#7BBE7A"/>
<path d="M36.4674 133.264C37.4788 124.98 42.6321 120.935 42.873 120.742L44.4141 122.765C44.366 122.813 39.8387 126.425 38.9718 133.602C38.0567 141.404 41.5726 150.362 49.4712 160.235L47.4965 161.873C39.1644 151.422 35.4559 141.789 36.4674 133.264Z" fill="#BEC9DB"/>
<path d="M44.606 123.296L46.2435 122.285C47.0623 121.755 47.2549 120.648 46.677 119.877L46.4843 119.636C45.9064 118.914 44.7987 118.817 44.1244 119.443L42.6795 120.744C41.9089 121.322 41.9089 122.526 42.6795 123.152C43.2093 123.634 44.0281 123.682 44.606 123.296Z" fill="#102C56"/>
<path d="M65.2676 162.837C75.8633 155.95 82.0281 148.533 83.6174 140.779C85.0623 133.651 81.9318 128.883 81.8836 128.835L84.0027 127.39C84.1472 127.63 87.8076 133.121 86.1219 141.26C84.388 149.737 77.8379 157.684 66.6643 165.004L65.2676 162.837Z" fill="#BEC9DB"/>
<path d="M81.5936 129.267L80.3414 127.774C79.7153 127.004 79.9079 125.896 80.7267 125.318L81.0156 125.125C81.7862 124.595 82.894 124.884 83.3274 125.703L84.2907 127.389C84.7723 128.256 84.387 129.364 83.4719 129.749C82.7976 130.038 82.027 129.845 81.5936 129.267Z" fill="#102C56"/>
<path fill-rule="evenodd" clip-rule="evenodd" d="M138.085 132.809C143.003 134.371 145.724 139.624 144.162 144.542C142.6 149.46 137.347 152.181 132.429 150.619C127.51 149.057 124.79 143.804 126.352 138.886C127.914 133.968 133.167 131.247 138.085 132.809Z" fill="url(#paint2_linear_6_29)"/>
<path d="M92.6227 158.213L74.7063 183.595C72.1537 187.207 67.4819 188.604 63.34 186.966C59.3906 185.425 56.9825 181.524 57.3197 177.334L57.6086 173.288C59.4388 173.24 61.269 172.758 62.8583 171.795C63.1473 171.602 63.4363 171.458 63.7253 171.265C66.0852 169.58 67.6264 167.075 68.0599 164.234C68.2044 163.27 67.5301 162.355 66.5668 162.163C65.6036 162.018 64.6885 162.692 64.4959 163.656C64.2069 165.582 63.1473 167.22 61.6061 168.376C60.0649 169.483 58.1384 169.965 56.2119 169.628C52.2626 169.002 49.6137 165.293 50.2398 161.344C50.3843 160.381 49.71 159.466 48.7468 159.273C47.7835 159.128 46.8684 159.803 46.6758 160.766C45.8089 166.112 49.0357 171.121 53.9965 172.758L53.6593 177.093C53.2259 182.872 56.5491 188.17 61.9433 190.338C65.8444 191.879 70.0827 191.445 73.5022 189.423C75.0916 188.507 76.4883 187.207 77.596 185.666L95.5124 160.284C103.363 149.207 116.126 142.994 129.708 143.765C130.719 143.813 131.538 143.042 131.586 142.079C131.682 141.116 130.96 140.249 129.949 140.201C115.163 139.382 101.196 146.125 92.6227 158.213Z" fill="#102C56"/>
<path fill-rule="evenodd" clip-rule="evenodd" d="M141.508 141.729C141.515 145.187 138.717 147.996 135.259 148.002C131.801 148.008 128.992 145.21 128.986 141.752C128.98 138.294 131.778 135.486 135.236 135.48C138.694 135.473 141.502 138.271 141.508 141.729Z" fill="#FFD18C"/>
<path d="M240 142.319C240 142.319 227.045 155.708 217.171 160.621C207.298 165.533 200.604 165.726 200.604 165.726L168.672 156.286C168.672 156.238 191.453 151.759 209.514 135.528L240 142.319Z" fill="url(#paint3_linear_6_29)"/>
<path d="M239.952 142.271C239.952 142.271 226.322 154.697 215.919 158.887C205.516 163.125 198.533 162.836 198.533 162.836L165.156 151.374C165.156 151.422 189.045 148.484 208.069 133.554L239.952 142.271Z" fill="url(#paint4_linear_6_29)"/>
<path d="M152.827 39.5416L167.421 45.321C170.696 46.6214 172.285 50.3299 170.985 53.605C169.684 56.88 165.976 58.4694 162.701 57.169L148.108 51.3895C144.832 50.0409 143.243 46.3324 144.544 43.1056C145.844 39.8305 149.552 38.2412 152.827 39.5416Z" fill="url(#paint5_linear_6_29)"/>
<path d="M167.371 45.2726L157.786 41.4678C161.061 42.7682 162.651 46.4767 161.35 49.7517C160.05 53.0267 156.341 54.6161 153.066 53.3157L162.651 57.1205C165.926 58.4209 169.634 56.8316 170.935 53.5565C172.235 50.2815 170.646 46.573 167.371 45.2726Z" fill="url(#paint6_linear_6_29)"/>
<path d="M15.2743 122.766L26.448 139.912C28.9524 143.765 27.8929 148.919 24.0399 151.423C20.1869 153.927 15.0335 152.868 12.5291 149.015L1.3554 131.821C-1.14905 128.016 -0.0894744 122.863 3.76351 120.358C7.6165 117.854 12.7699 118.913 15.2743 122.766Z" fill="url(#paint7_linear_6_29)"/>
<path d="M26.4486 139.864L19.1279 128.643C21.6324 132.496 20.5728 137.649 16.7198 140.153C12.8668 142.658 7.71343 141.598 5.20898 137.745L12.5297 148.967C15.0341 152.82 20.1875 153.88 24.0405 151.375C27.8935 148.871 28.953 143.717 26.4486 139.864Z" fill="url(#paint8_linear_6_29)"/>
<path d="M87.0842 24.7556L85.5912 23.3108L91.6596 17.146L92.4784 17.9647C92.8637 18.3019 93.4416 18.3019 93.7788 17.9647C94.1159 17.5794 94.1159 17.0015 93.7788 16.6643L88.4809 11.4628C88.0956 11.1257 87.5177 11.1257 87.1805 11.4628C86.8434 11.8481 86.8434 12.4261 87.1805 12.7632L87.9993 13.582L81.9308 19.7467L80.4378 18.3019L80.197 18.0611C79.8117 17.7239 79.2337 17.7239 78.8966 18.0611C78.5595 18.4464 78.5595 19.0243 78.8966 19.3614L79.1374 19.6023L61.1729 37.904C60.6912 38.3856 60.5949 39.108 60.8839 39.686L62.3288 42.4794L50.7216 54.3273C50.4808 54.5681 50.4808 54.9053 50.7216 55.1461C50.9624 55.3869 51.3477 55.3869 51.5404 55.1461L63.1475 43.3463L65.9891 44.6949C66.6152 44.9838 67.3376 44.8393 67.7711 44.4059L85.7357 26.056L85.9765 26.2968C86.3618 26.634 86.9397 26.634 87.2769 26.2968C87.7103 25.9115 87.7103 25.3336 87.325 24.9964L87.0842 24.7556Z" fill="url(#paint9_linear_6_29)"/>
<path d="M139.725 18.4462C139.099 17.483 138.858 16.2789 139.003 15.123L139.147 14.0153H139.292C139.677 14.0634 140.062 13.8226 140.11 13.3892L140.544 10.5476C140.592 10.1623 140.351 9.77699 139.918 9.72883L127.396 7.89866C127.01 7.85049 126.625 8.09131 126.577 8.52477L126.143 11.3663C126.095 11.7516 126.336 12.1369 126.769 12.1851H126.914L126.769 13.2928C126.577 14.4487 125.999 15.5083 125.132 16.2307L123.398 17.7238C122.868 18.1572 122.531 18.7833 122.435 19.5058L119.93 36.4589C119.738 37.6148 120.557 38.7226 121.761 38.9152L136.498 41.0825C137.654 41.2752 138.762 40.4564 138.955 39.2524L141.459 22.2992C141.507 21.6731 141.363 20.9507 140.977 20.3727L139.725 18.4462Z" fill="url(#paint10_linear_6_29)"/>
<path d="M112.419 186.292C112.178 186.34 111.937 186.148 111.889 185.859L111.214 179.116C111.166 178.875 110.974 178.683 110.685 178.683L104.568 179.309C104.327 179.357 104.135 179.55 104.135 179.839L104.809 186.581C104.857 186.822 104.664 187.063 104.375 187.111L97.6327 187.785C97.3919 187.833 97.1992 188.026 97.1992 188.315L97.8253 194.432C97.8735 194.673 98.0661 194.865 98.3551 194.865L105.098 194.191C105.339 194.143 105.579 194.335 105.628 194.624L106.302 201.367C106.35 201.608 106.543 201.801 106.832 201.801L112.948 201.174C113.189 201.126 113.382 200.934 113.382 200.645L112.707 193.902C112.659 193.661 112.852 193.42 113.141 193.372L119.884 192.698C120.124 192.65 120.317 192.457 120.317 192.168L119.691 186.051C119.643 185.762 119.402 185.57 119.161 185.618L112.419 186.292Z" fill="url(#paint11_linear_6_29)"/>
<path fill-rule="evenodd" clip-rule="evenodd" d="M153.866 169.22C155.795 170.399 156.403 172.919 155.225 174.848C154.046 176.777 151.526 177.386 149.597 176.207C147.668 175.028 147.059 172.508 148.238 170.579C149.417 168.65 151.937 168.041 153.866 169.22Z" fill="url(#paint12_linear_6_29)"/>
<path d="M172.381 182.823L178.642 176.659C179.846 175.455 181.82 175.503 182.976 176.707C184.18 177.911 184.132 179.886 182.928 181.041L176.667 187.206C175.511 188.362 173.537 188.362 172.332 187.158C171.128 185.954 171.177 183.979 172.381 182.823Z" fill="url(#paint13_linear_6_29)"/>
<path d="M0.899381 92.15C0.899381 88.648 1.68138 85.52 3.24538 82.766C4.84338 79.978 7.00238 77.819 9.72238 76.289C12.4764 74.725 15.5534 73.943 18.9534 73.943C22.9314 73.943 26.4164 74.963 29.4084 77.003C32.4004 79.043 34.4914 81.865 35.6814 85.469H27.4704C26.6544 83.769 25.4984 82.494 24.0024 81.644C22.5404 80.794 20.8404 80.369 18.9024 80.369C16.8284 80.369 14.9754 80.862 13.3434 81.848C11.7454 82.8 10.4874 84.16 9.56938 85.928C8.68538 87.696 8.24338 89.77 8.24338 92.15C8.24338 94.496 8.68538 96.57 9.56938 98.372C10.4874 100.14 11.7454 101.517 13.3434 102.503C14.9754 103.455 16.8284 103.931 18.9024 103.931C20.8404 103.931 22.5404 103.506 24.0024 102.656C25.4984 101.772 26.6544 100.48 27.4704 98.78H35.6814C34.4914 102.418 32.4004 105.257 29.4084 107.297C26.4504 109.303 22.9654 110.306 18.9534 110.306C15.5534 110.306 12.4764 109.541 9.72238 108.011C7.00238 106.447 4.84338 104.288 3.24538 101.534C1.68138 98.78 0.899381 95.652 0.899381 92.15ZM53.7649 110.459C51.0449 110.459 48.5969 109.864 46.4209 108.674C44.2449 107.45 42.5279 105.733 41.2699 103.523C40.0459 101.313 39.4339 98.763 39.4339 95.873C39.4339 92.983 40.0629 90.433 41.3209 88.223C42.6129 86.013 44.3639 84.313 46.5739 83.123C48.7839 81.899 51.2489 81.287 53.9689 81.287C56.6889 81.287 59.1539 81.899 61.3639 83.123C63.5739 84.313 65.3079 86.013 66.5659 88.223C67.8579 90.433 68.5039 92.983 68.5039 95.873C68.5039 98.763 67.8409 101.313 66.5149 103.523C65.2229 105.733 63.4549 107.45 61.2109 108.674C59.0009 109.864 56.5189 110.459 53.7649 110.459ZM53.7649 104.237C55.0569 104.237 56.2639 103.931 57.3859 103.319C58.5419 102.673 59.4599 101.721 60.1399 100.463C60.8199 99.205 61.1599 97.675 61.1599 95.873C61.1599 93.187 60.4459 91.13 59.0179 89.702C57.6239 88.24 55.9069 87.509 53.8669 87.509C51.8269 87.509 50.1099 88.24 48.7159 89.702C47.3559 91.13 46.6759 93.187 46.6759 95.873C46.6759 98.559 47.3389 100.633 48.6649 102.095C50.0249 103.523 51.7249 104.237 53.7649 104.237ZM88.8373 81.338C92.2033 81.338 94.9233 82.409 96.9973 84.551C99.0713 86.659 100.108 89.617 100.108 93.425V110H92.9683V94.394C92.9683 92.15 92.4073 90.433 91.2853 89.243C90.1633 88.019 88.6333 87.407 86.6953 87.407C84.7233 87.407 83.1593 88.019 82.0033 89.243C80.8813 90.433 80.3203 92.15 80.3203 94.394V110H73.1803V81.746H80.3203V85.265C81.2723 84.041 82.4793 83.089 83.9413 82.409C85.4373 81.695 87.0693 81.338 88.8373 81.338ZM117.404 81.287C119.512 81.287 121.365 81.712 122.963 82.562C124.561 83.378 125.819 84.449 126.737 85.775V81.746H133.928V110.204C133.928 112.822 133.401 115.151 132.347 117.191C131.293 119.265 129.712 120.897 127.604 122.087C125.496 123.311 122.946 123.923 119.954 123.923C115.942 123.923 112.644 122.988 110.06 121.118C107.51 119.248 106.065 116.698 105.725 113.468H112.814C113.188 114.76 113.987 115.78 115.211 116.528C116.469 117.31 117.982 117.701 119.75 117.701C121.824 117.701 123.507 117.072 124.799 115.814C126.091 114.59 126.737 112.72 126.737 110.204V105.818C125.819 107.144 124.544 108.249 122.912 109.133C121.314 110.017 119.478 110.459 117.404 110.459C115.024 110.459 112.848 109.847 110.876 108.623C108.904 107.399 107.34 105.682 106.184 103.472C105.062 101.228 104.501 98.661 104.501 95.771C104.501 92.915 105.062 90.382 106.184 88.172C107.34 85.962 108.887 84.262 110.825 83.072C112.797 81.882 114.99 81.287 117.404 81.287ZM126.737 95.873C126.737 94.139 126.397 92.66 125.717 91.436C125.037 90.178 124.119 89.226 122.963 88.58C121.807 87.9 120.566 87.56 119.24 87.56C117.914 87.56 116.69 87.883 115.568 88.529C114.446 89.175 113.528 90.127 112.814 91.385C112.134 92.609 111.794 94.071 111.794 95.771C111.794 97.471 112.134 98.967 112.814 100.259C113.528 101.517 114.446 102.486 115.568 103.166C116.724 103.846 117.948 104.186 119.24 104.186C120.566 104.186 121.807 103.863 122.963 103.217C124.119 102.537 125.037 101.585 125.717 100.361C126.397 99.103 126.737 97.607 126.737 95.873ZM147.481 86.132C148.399 84.636 149.589 83.463 151.051 82.613C152.547 81.763 154.247 81.338 156.151 81.338V88.835H154.264C152.02 88.835 150.32 89.362 149.164 90.416C148.042 91.47 147.481 93.306 147.481 95.924V110H140.341V81.746H147.481V86.132ZM158.563 95.771C158.563 92.915 159.124 90.382 160.246 88.172C161.402 85.962 162.949 84.262 164.887 83.072C166.859 81.882 169.052 81.287 171.466 81.287C173.574 81.287 175.41 81.712 176.974 82.562C178.572 83.412 179.847 84.483 180.799 85.775V81.746H187.99V110H180.799V105.869C179.881 107.195 178.606 108.3 176.974 109.184C175.376 110.034 173.523 110.459 171.415 110.459C169.035 110.459 166.859 109.847 164.887 108.623C162.949 107.399 161.402 105.682 160.246 103.472C159.124 101.228 158.563 98.661 158.563 95.771ZM180.799 95.873C180.799 94.139 180.459 92.66 179.779 91.436C179.099 90.178 178.181 89.226 177.025 88.58C175.869 87.9 174.628 87.56 173.302 87.56C171.976 87.56 170.752 87.883 169.63 88.529C168.508 89.175 167.59 90.127 166.876 91.385C166.196 92.609 165.856 94.071 165.856 95.771C165.856 97.471 166.196 98.967 166.876 100.259C167.59 101.517 168.508 102.486 169.63 103.166C170.786 103.846 172.01 104.186 173.302 104.186C174.628 104.186 175.869 103.863 177.025 103.217C178.181 102.537 179.099 101.585 179.779 100.361C180.459 99.103 180.799 97.607 180.799 95.873ZM202.715 87.611V101.279C202.715 102.231 202.936 102.928 203.378 103.37C203.854 103.778 204.636 103.982 205.724 103.982H209.039V110H204.551C198.533 110 195.524 107.076 195.524 101.228V87.611H192.158V81.746H195.524V74.759H202.715V81.746H209.039V87.611H202.715ZM224.426 110.459C222.114 110.459 220.04 110.051 218.204 109.235C216.368 108.385 214.906 107.246 213.818 105.818C212.764 104.39 212.186 102.809 212.084 101.075H219.275C219.411 102.163 219.938 103.064 220.856 103.778C221.808 104.492 222.981 104.849 224.375 104.849C225.735 104.849 226.789 104.577 227.537 104.033C228.319 103.489 228.71 102.792 228.71 101.942C228.71 101.024 228.234 100.344 227.282 99.902C226.364 99.426 224.885 98.916 222.845 98.372C220.737 97.862 219.003 97.335 217.643 96.791C216.317 96.247 215.161 95.414 214.175 94.292C213.223 93.17 212.747 91.657 212.747 89.753C212.747 88.189 213.189 86.761 214.073 85.469C214.991 84.177 216.283 83.157 217.949 82.409C219.649 81.661 221.638 81.287 223.916 81.287C227.282 81.287 229.968 82.137 231.974 83.837C233.98 85.503 235.085 87.764 235.289 90.62H228.455C228.353 89.498 227.877 88.614 227.027 87.968C226.211 87.288 225.106 86.948 223.712 86.948C222.42 86.948 221.417 87.186 220.703 87.662C220.023 88.138 219.683 88.801 219.683 89.651C219.683 90.603 220.159 91.334 221.111 91.844C222.063 92.32 223.542 92.813 225.548 93.323C227.588 93.833 229.271 94.36 230.597 94.904C231.923 95.448 233.062 96.298 234.014 97.454C235 98.576 235.51 100.072 235.544 101.942C235.544 103.574 235.085 105.036 234.167 106.328C233.283 107.62 231.991 108.64 230.291 109.388C228.625 110.102 226.67 110.459 224.426 110.459Z" fill="#1A4D1F"/>
<defs>
<linearGradient id="paint0_linear_6_29" x1="-34.6309" y1="0" x2="-34.6309" y2="310.55" gradientUnits="userSpaceOnUse">
<stop stop-color="#74B973"/>
<stop offset="1" stop-color="#F3FBF2"/>
</linearGradient>
<linearGradient id="paint1_linear_6_29" x1="-22.7708" y1="-11.4369" x2="-45.7426" y2="275.279" gradientUnits="userSpaceOnUse">
<stop stop-color="#B4EAB3"/>
<stop offset="1" stop-color="#8CCC8B"/>
</linearGradient>
<linearGradient id="paint2_linear_6_29" x1="-30.6629" y1="198.854" x2="198.203" y2="271.229" gradientUnits="userSpaceOnUse">
<stop stop-color="#FFA620"/>
<stop offset="1" stop-color="#F39200"/>
</linearGradient>
<linearGradient id="paint3_linear_6_29" x1="26.9112" y1="0.175575" x2="-31.4445" y2="257.561" gradientUnits="userSpaceOnUse">
<stop stop-color="#CBF1CA"/>
<stop offset="1" stop-color="#ADE1AC"/>
</linearGradient>
<linearGradient id="paint4_linear_6_29" x1="26.9148" y1="0.172811" x2="-31.4658" y2="257.556" gradientUnits="userSpaceOnUse">
<stop stop-color="#D9F8D9"/>
<stop offset="1" stop-color="#C6F1C5"/>
</linearGradient>
<linearGradient id="paint5_linear_6_29" x1="0.000358711" y1="-0.000299958" x2="0.000358711" y2="240.999" gradientUnits="userSpaceOnUse">
<stop stop-color="#8CCC8B"/>
<stop offset="1" stop-color="#74B973"/>
</linearGradient>
<linearGradient id="paint6_linear_6_29" x1="0" y1="0" x2="0" y2="241" gradientUnits="userSpaceOnUse">
<stop stop-color="#FFA620"/>
<stop offset="1" stop-color="#F39200"/>
</linearGradient>
<linearGradient id="paint7_linear_6_29" x1="0" y1="0.00170568" x2="0" y2="240.998" gradientUnits="userSpaceOnUse">
<stop stop-color="#8CCC8B"/>
<stop offset="1" stop-color="#74B973"/>
</linearGradient>
<linearGradient id="paint8_linear_6_29" x1="0" y1="0" x2="0" y2="241.003" gradientUnits="userSpaceOnUse">
<stop stop-color="#FFA620"/>
<stop offset="1" stop-color="#F39200"/>
</linearGradient>
<linearGradient id="paint9_linear_6_29" x1="50.5599" y1="-40.5784" x2="-87.9563" y2="339.156" gradientUnits="userSpaceOnUse">
<stop stop-color="#85C284"/>
<stop offset="1" stop-color="#85C284" stop-opacity="0.5"/>
</linearGradient>
<linearGradient id="paint10_linear_6_29" x1="121.747" y1="-66.2658" x2="-67.8742" y2="170.093" gradientUnits="userSpaceOnUse">
<stop stop-color="#85C284"/>
<stop offset="1" stop-color="#85C284" stop-opacity="0.5"/>
</linearGradient>
<linearGradient id="paint11_linear_6_29" x1="-211.265" y1="0" x2="-211.265" y2="665.278" gradientUnits="userSpaceOnUse">
<stop stop-color="#85C284"/>
<stop offset="1" stop-color="#85C284" stop-opacity="0.01"/>
</linearGradient>
<linearGradient id="paint12_linear_6_29" x1="-66.208" y1="195.442" x2="208.794" y2="362.804" gradientUnits="userSpaceOnUse">
<stop stop-color="#85C284"/>
<stop offset="1" stop-color="#85C284" stop-opacity="0.01"/>
</linearGradient>
<linearGradient id="paint13_linear_6_29" x1="-40.8145" y1="-0.012578" x2="-40.8145" y2="322.963" gradientUnits="userSpaceOnUse">
<stop stop-color="#85C284"/>
<stop offset="1" stop-color="#85C284" stop-opacity="0.01"/>
</linearGradient>
</defs>
</svg>
